# xmcd
#
# Track frame offsets: 
#        150
#        3227
#        15594
#        26593
#        49967
#        53234
#        57035
#        78705
#        87619
#        105532
#        122457
#        127566
#        145899
#        162737
#        176921
#        179808
#        198282
#        208591
#        211231
#        227066
#        229565
#        248895
#        254784
#        258202
#        260422
#        275539
#        296603
#
# Disc length: 4236 seconds
#
# Revision: 0
# Processed by: cddbd v1.5.2PL0 Copyright (c) Steve Scherf et al.
# Submitted via: ExactAudioCopy v0.99pb4
#
DISCID=89108a1b
DTITLE=Lucinda Williams - Lucinda Williams - Live at Town Hall Oct. 4,
DTITLE=2007
DYEAR=2007
DGENRE=Alternative
TTITLE0=Lucinda Chatter
TTITLE1=I Just Wanted to See You So Bad
TTITLE2=Lucinda Chatter
TTITLE3=The Night's Too Long
TTITLE4=Lucinda Chatter
TTITLE5=Abandoned (False Start)
TTITLE6=Abandoned
TTITLE7=Lucinda Chatter
TTITLE8=Big Red Sun Blues
TTITLE9=Like a Rose
TTITLE10=Lucinda Chatter
TTITLE11=Changed the Locks
TTITLE12=Lucinda Chatter
TTITLE13=Passionate Kisses
TTITLE14=Lucinda Chatter
TTITLE15=Am I Too Blue
TTITLE16=Lucinda Chatter
TTITLE17=Lucinda Chatter
TTITLE18=Crescent City
TTITLE19=Lucinda Chatter
TTITLE20=Side of the Road
TTITLE21=Lucinda Chatter
TTITLE22=Price to Pay (False Start)
TTITLE23=Lucinda Chatter
TTITLE24=Price to Pay
TTITLE25=Band Intro.
TTITLE26=I Asked for Water (He Gave Me Gasoline)
EXTD=
EXTT0=
EXTT1=
EXTT2=
EXTT3=
EXTT4=
EXTT5=
EXTT6=
EXTT7=
EXTT8=
EXTT9=
EXTT10=
EXTT11=
EXTT12=
EXTT13=
EXTT14=
EXTT15=
EXTT16=
EXTT17=
EXTT18=
EXTT19=
EXTT20=
EXTT21=
EXTT22=
EXTT23=
EXTT24=
EXTT25=
EXTT26=
PLAYORDER=
